<?xml version="1.0" standalone="no"?><!-- Generator: Gravit.io --><svg xmlns="http://www.w3.org/2000/svg" xmlns:xlink="http://www.w3.org/1999/xlink" style="isolation:isolate" viewBox="0 0 345 100" width="345" height="100"><defs><clipPath id="_clipPath_tus2oh16MQ3AdzDvcsw9dhtAcK473sSO"><rect width="345" height="100"/></clipPath></defs><g clip-path="url(#_clipPath_tus2oh16MQ3AdzDvcsw9dhtAcK473sSO)"><path d=" M 146.321 86.457 C 154.135 86.457 157.911 82.464 157.911 77.168 C 157.911 66.359 141.285 69.441 141.285 64.839 C 141.285 63.103 142.761 61.931 145.409 61.931 C 148.361 61.931 151.487 62.929 153.831 65.1 L 157.26 60.585 C 154.395 57.937 150.575 56.548 145.974 56.548 C 139.158 56.548 134.991 60.542 134.991 65.36 C 134.991 76.256 151.66 72.74 151.66 77.862 C 151.66 79.512 150.011 81.075 146.625 81.075 C 142.631 81.075 139.462 79.295 137.422 77.168 L 134.079 81.856 C 136.771 84.591 140.765 86.457 146.321 86.457 Z  M 176.968 86.457 C 183.35 86.457 186.996 82.941 189.08 79.338 L 183.784 76.777 C 182.568 79.165 179.964 80.988 176.968 80.988 C 171.716 80.988 167.896 76.951 167.896 71.481 C 167.896 66.011 171.716 61.974 176.968 61.974 C 179.964 61.974 182.568 63.841 183.784 66.185 L 189.08 63.581 C 187.039 59.978 183.35 56.505 176.968 56.505 C 168.286 56.505 161.558 62.582 161.558 71.481 C 161.558 80.38 168.286 86.457 176.968 86.457 Z  M 199.802 85.937 L 199.802 56.982 L 193.638 56.982 L 193.638 85.937 L 199.802 85.937 Z  M 226.889 85.937 L 226.889 80.51 L 212.564 80.51 L 212.564 73.955 L 226.586 73.955 L 226.586 68.529 L 212.564 68.529 L 212.564 62.408 L 226.889 62.408 L 226.889 56.982 L 206.4 56.982 L 206.4 85.937 L 226.889 85.937 Z  M 258.492 85.937 L 258.492 56.982 L 252.328 56.982 L 252.328 75.171 L 238.914 56.982 L 232.576 56.982 L 232.576 85.937 L 238.74 85.937 L 238.74 67.053 L 252.545 85.937 L 258.492 85.937 Z  M 279.111 86.457 C 285.493 86.457 289.139 82.941 291.223 79.338 L 285.927 76.777 C 284.711 79.165 282.107 80.988 279.111 80.988 C 273.859 80.988 270.039 76.951 270.039 71.481 C 270.039 66.011 273.859 61.974 279.111 61.974 C 282.107 61.974 284.711 63.841 285.927 66.185 L 291.223 63.581 C 289.182 59.978 285.493 56.505 279.111 56.505 C 270.429 56.505 263.701 62.582 263.701 71.481 C 263.701 80.38 270.429 86.457 279.111 86.457 Z  M 316.27 85.937 L 316.27 80.51 L 301.945 80.51 L 301.945 73.955 L 315.966 73.955 L 315.966 68.529 L 301.945 68.529 L 301.945 62.408 L 316.27 62.408 L 316.27 56.982 L 295.781 56.982 L 295.781 85.937 L 316.27 85.937 Z  M 17.047 86.457 C 25.816 86.457 32.197 80.206 32.197 71.481 C 32.197 62.756 25.816 56.505 17.047 56.505 C 8.321 56.505 1.94 62.756 1.94 71.481 C 1.94 80.206 8.321 86.457 17.047 86.457 Z  M 17.047 80.988 C 11.707 80.988 8.278 76.864 8.278 71.481 C 8.278 66.055 11.707 61.974 17.047 61.974 C 22.386 61.974 25.859 66.055 25.859 71.481 C 25.859 76.864 22.386 80.988 17.047 80.988 Z  M 43.57 85.937 L 43.57 75.648 L 50.95 75.648 C 57.201 75.648 60.674 71.351 60.674 66.315 C 60.674 61.236 57.244 56.982 50.95 56.982 L 37.406 56.982 L 37.406 85.937 L 43.57 85.937 Z  M 50.125 70.222 L 43.57 70.222 L 43.57 62.408 L 50.125 62.408 C 52.556 62.408 54.379 63.884 54.379 66.315 C 54.379 68.703 52.556 70.222 50.125 70.222 Z  M 85.851 85.937 L 85.851 80.51 L 71.526 80.51 L 71.526 73.955 L 85.547 73.955 L 85.547 68.529 L 71.526 68.529 L 71.526 62.408 L 85.851 62.408 L 85.851 56.982 L 65.362 56.982 L 65.362 85.937 L 85.851 85.937 Z  M 117.454 85.937 L 117.454 56.982 L 111.289 56.982 L 111.289 75.171 L 97.876 56.982 L 91.538 56.982 L 91.538 85.937 L 97.702 85.937 L 97.702 67.053 L 111.506 85.937 L 117.454 85.937 Z  M 168.851 40.458 C 176.664 40.458 180.441 36.464 180.441 31.168 C 180.441 20.359 163.815 23.441 163.815 18.84 C 163.815 17.103 165.291 15.931 167.939 15.931 C 170.891 15.931 174.016 16.93 176.361 19.1 L 179.79 14.586 C 176.925 11.938 173.105 10.549 168.503 10.549 C 161.688 10.549 157.521 14.542 157.521 19.361 C 157.521 30.257 174.19 26.74 174.19 31.863 C 174.19 33.512 172.54 35.075 169.155 35.075 C 165.161 35.075 161.992 33.295 159.952 31.168 L 156.609 35.856 C 159.301 38.591 163.294 40.458 168.851 40.458 Z  M 198.76 40.458 C 207.529 40.458 213.91 34.207 213.91 25.482 C 213.91 16.756 207.529 10.505 198.76 10.505 C 190.035 10.505 183.653 16.756 183.653 25.482 C 183.653 34.207 190.035 40.458 198.76 40.458 Z  M 198.76 34.988 C 193.421 34.988 189.991 30.864 189.991 25.482 C 189.991 20.055 193.421 15.975 198.76 15.975 C 204.099 15.975 207.572 20.055 207.572 25.482 C 207.572 30.864 204.099 34.988 198.76 34.988 Z  M 232.706 40.458 C 239.088 40.458 242.734 36.942 244.818 33.339 L 239.522 30.778 C 238.306 33.165 235.702 34.988 232.706 34.988 C 227.454 34.988 223.634 30.951 223.634 25.482 C 223.634 20.012 227.454 15.975 232.706 15.975 C 235.702 15.975 238.306 17.841 239.522 20.186 L 244.818 17.581 C 242.777 13.978 239.088 10.505 232.706 10.505 C 224.024 10.505 217.296 16.583 217.296 25.482 C 217.296 34.381 224.024 40.458 232.706 40.458 Z  M 255.106 39.937 L 255.106 10.983 L 248.942 10.983 L 248.942 39.937 L 255.106 39.937 Z  M 281.759 39.937 L 281.759 34.511 L 267.434 34.511 L 267.434 27.956 L 281.456 27.956 L 281.456 22.53 L 267.434 22.53 L 267.434 16.409 L 281.759 16.409 L 281.759 10.983 L 261.27 10.983 L 261.27 39.937 L 281.759 39.937 Z  M 299.905 39.937 L 299.905 16.409 L 308.326 16.409 L 308.326 10.983 L 285.232 10.983 L 285.232 16.409 L 293.697 16.409 L 293.697 39.937 L 299.905 39.937 Z  M 326.949 39.937 L 326.949 28.086 L 338.018 10.983 L 330.986 10.983 L 323.867 22.616 L 316.661 10.983 L 309.628 10.983 L 320.785 28.086 L 320.785 39.937 L 326.949 39.937 Z  M 26.771 39.937 L 20.259 28.911 C 23.385 28.173 26.597 25.438 26.597 20.316 C 26.597 14.933 22.907 10.983 16.873 10.983 L 3.329 10.983 L 3.329 39.937 L 9.494 39.937 L 9.494 29.649 L 14.008 29.649 L 19.695 39.937 L 26.771 39.937 Z  M 15.962 24.223 L 9.494 24.223 L 9.494 16.409 L 15.962 16.409 C 18.436 16.409 20.303 17.885 20.303 20.316 C 20.303 22.747 18.436 24.223 15.962 24.223 Z  M 45.393 40.458 C 54.162 40.458 60.543 34.207 60.543 25.482 C 60.543 16.756 54.162 10.505 45.393 10.505 C 36.668 10.505 30.287 16.756 30.287 25.482 C 30.287 34.207 36.668 40.458 45.393 40.458 Z  M 45.393 34.988 C 40.054 34.988 36.625 30.864 36.625 25.482 C 36.625 20.055 40.054 15.975 45.393 15.975 C 50.733 15.975 54.206 20.055 54.206 25.482 C 54.206 30.864 50.733 34.988 45.393 34.988 Z  M 79.557 39.937 L 79.557 28.086 L 90.626 10.983 L 83.594 10.983 L 76.475 22.616 L 69.269 10.983 L 62.236 10.983 L 73.393 28.086 L 73.393 39.937 L 79.557 39.937 Z  M 120.753 39.937 L 109.596 10.983 L 101.869 10.983 L 90.67 39.937 L 97.702 39.937 L 99.525 35.032 L 111.94 35.032 L 113.72 39.937 L 120.753 39.937 Z  M 110.248 29.605 L 101.218 29.605 L 105.733 17.147 L 110.248 29.605 Z  M 142.284 39.937 L 142.284 34.511 L 130.042 34.511 L 130.042 10.983 L 123.878 10.983 L 123.878 39.937 L 142.284 39.937 Z " fill-rule="evenodd" fill="rgb(51,49,50)"/></g></svg>