<svg xmlns="http://www.w3.org/2000/svg" viewBox="0 0 243.01 243.01"><path d="M237.13 121.51c0 63.85-51.77 115.62-115.62 115.62S5.89 185.37 5.89 121.51C5.89 57.65 57.65 5.89 121.5 5.89c63.86 0 115.63 51.76 115.63 115.62z" fill="none" stroke="#796c83" stroke-width="7.54" stroke-linecap="round" stroke-linejoin="round" stroke-miterlimit="10"/><path d="M168.2 112.03c5.06-5.06 5.07-13.28 0-18.34l-45.35 45.35-36.17-36.17 36.17-36.18 13.5 13.5-20.73 20.73 9.17 9.17 25.31-25.31a6.488 6.488 0 0 0 0-9.17l-22.67-22.67a6.488 6.488 0 0 0-9.17 0L72.92 98.27a6.488 6.488 0 0 0 0 9.17l45.35 45.35a6.488 6.488 0 0 0 9.17 0l40.76-40.76zm-81.59 71.92c1.41.63 2.57 1.62 3.48 2.98.83 1.2 1.36 2.58 1.6 4.17.14.93.2 2.26.17 4H77.19c.08 2.02.78 3.44 2.11 4.25.8.51 1.77.76 2.91.76 1.2 0 2.17-.31 2.92-.92.41-.33.77-.79 1.08-1.39h5.38c-.14 1.2-.79 2.41-1.95 3.64-1.8 1.96-4.33 2.94-7.58 2.94-2.68 0-5.05-.83-7.1-2.48s-3.07-4.34-3.07-8.07c0-3.49.92-6.17 2.78-8.03 1.85-1.86 4.25-2.79 7.2-2.79 1.75 0 3.33.31 4.74.94zm-7.89 4.55c-.74.77-1.21 1.81-1.4 3.12h9.08c-.1-1.4-.56-2.46-1.4-3.18-.84-.72-1.88-1.09-3.12-1.09-1.36 0-2.41.39-3.16 1.15zm34.53 3.4c-1.59 1.33-3.87 2-6.83 2h-5.67v9.8h-5.66v-27.25h11.7c2.7 0 4.85.7 6.45 2.11 1.6 1.41 2.41 3.58 2.41 6.53-.01 3.2-.81 5.48-2.4 6.81zm-4.35-9.82c-.72-.6-1.73-.91-3.03-.91h-5.13v8.02h5.13c1.3 0 2.31-.33 3.03-.98.72-.65 1.08-1.69 1.08-3.11s-.36-2.41-1.08-3.02zm11.3-5.63h5.79v16.73c0 1.87.22 3.24.66 4.1.69 1.53 2.19 2.29 4.49 2.29 2.3 0 3.79-.76 4.48-2.29.44-.86.66-2.23.66-4.1v-16.73h5.79v16.75c0 2.9-.45 5.15-1.35 6.77-1.67 2.96-4.87 4.44-9.58 4.44s-7.91-1.48-9.6-4.44c-.9-1.61-1.35-3.87-1.35-6.77v-16.75zm47.66 2.9c.83 1.16 1.25 2.54 1.25 4.16 0 1.66-.42 3-1.26 4.01-.47.57-1.16 1.08-2.08 1.55 1.39.51 2.44 1.31 3.15 2.4.71 1.1 1.06 2.43 1.06 3.99 0 1.62-.4 3.06-1.21 4.34-.51.85-1.16 1.57-1.93 2.14-.87.67-1.9 1.12-3.08 1.37-1.18.25-2.47.37-3.85.37h-12.28v-27.25h13.17c3.32.07 5.68 1.03 7.06 2.92zm-14.79 1.83v6.01h6.62c1.18 0 2.14-.22 2.88-.67.74-.45 1.11-1.25 1.11-2.39 0-1.27-.49-2.11-1.46-2.51-.84-.28-1.92-.43-3.22-.43h-5.93zm0 10.52v7.26h6.62c1.18 0 2.1-.16 2.76-.48 1.19-.59 1.79-1.73 1.79-3.4 0-1.42-.58-2.39-1.74-2.92-.65-.3-1.55-.45-2.72-.46h-6.71z" fill="#796c83"/></svg>