<svg data-name="Layer 1" xmlns="http://www.w3.org/2000/svg" viewBox="0 0 238.79 238.78"><path d="M234.98 119.39A115.63 115.63 0 1 1 119.39 3.77a115.64 115.64 0 0 1 115.59 115.62z" fill="none" stroke="#ac2226" stroke-linecap="round" stroke-linejoin="round" stroke-width="7.54"/><path d="M202.15 113.72h-92.31a37.26 37.26 0 1 0-.59 14.33h39.73v14.61a1.16 1.16 0 0 0 1.16 1.15h11.35a1.16 1.16 0 0 0 1.16-1.15v-14.61h7v22.56a1.16 1.16 0 0 0 1.16 1.15h11.35a1.16 1.16 0 0 0 1.16-1.15v-22.56h18.75a.87.87 0 0 0 .87-.87v-12.59a.87.87 0 0 0-.79-.87zM74.88 142.24a23 23 0 1 1 21-21 23 23 0 0 1-21 21z" fill="#ac2226"/></svg>