<svg xmlns="http://www.w3.org/2000/svg" viewBox="0 0 256 256"><defs><style>.cls-1{fill:#796c83}</style></defs><g id="Societies"><circle class="cls-1" cx="128.5" cy="90.5" r="34.99"/><path class="cls-1" d="M192 201.5H64.56a63.71 63.71 0 1 1 127.42 0z"/><circle class="cls-1" cx="55.5" cy="98.5" r="29.99"/><circle class="cls-1" cx="200.5" cy="98.5" r="29.99"/><path class="cls-1" d="M200.72 193.5h54a54.58 54.58 0 0 0-54.43-54.73 53.94 53.94 0 0 0-27.39 7.44 74.76 74.76 0 0 1 27.82 47.29zM83.47 146.34a54 54 0 0 0-27.62-7.57A54.58 54.58 0 0 0 1.41 193.5h54.41a74.81 74.81 0 0 1 27.65-47.16z"/></g></svg>