<svg id="Layer_1" data-name="Layer 1" xmlns="http://www.w3.org/2000/svg" viewBox="0 0 238.79 238.78"><defs><style>.cls-1{fill:none;clip-rule:evenodd}.cls-7{fill:#fff}.cls-4{fill:#796c83}</style><clipPath id="clip-path" transform="translate(-2.11 -1.76)"><path class="cls-1" d="M116.75 58.65c-14 0-25.37 10-25.37 22.36v32c0 12.35 11.36 22.36 25.37 22.36h9.49c14 0 25.37-10 25.37-22.36V81c0-12.35-11.36-22.36-25.37-22.36h-9.49z"/></clipPath><clipPath id="clip-path-2" transform="translate(-2.11 -1.76)"><circle cx="121.5" cy="128.3" r="11.77" fill="none"/></clipPath><clipPath id="clip-path-3" transform="translate(-2.11 -1.76)"><path class="cls-1" d="M121.5 127.76a5.17 5.17 0 0 0-5.17 5.17v21.4a5.17 5.17 0 0 0 10.34 0v-21.4a5.17 5.17 0 0 0-5.17-5.17z"/></clipPath></defs><circle cx="119.39" cy="119.39" r="115.62" stroke="#796c83" stroke-linecap="round" stroke-linejoin="round" stroke-width="7.54" fill="#fff"/><rect class="cls-4" x="74.04" y="97.07" width="90.71" height="76.81" rx="5.44" ry="5.44"/><g clip-path="url(#clip-path)"><path class="cls-4" d="M126.25 69.21a17.64 17.64 0 0 1 6.18 1.09 15.19 15.19 0 0 1 4.77 2.82A10.57 10.57 0 0 1 141 81v32a10.57 10.57 0 0 1-3.85 7.89 15.17 15.17 0 0 1-4.77 2.82 17.62 17.62 0 0 1-6.18 1.09h-9.49a17.62 17.62 0 0 1-6.18-1.09 15.19 15.19 0 0 1-4.77-2.82A10.57 10.57 0 0 1 102 113V81a10.57 10.57 0 0 1 3.85-7.89 15.19 15.19 0 0 1 4.77-2.82 17.64 17.64 0 0 1 6.18-1.09h9.49m0-10.56h-9.49c-14 0-25.37 10-25.37 22.36v32c0 12.35 11.36 22.36 25.37 22.36h9.49c14 0 25.37-10 25.37-22.36V81c0-12.35-11.36-22.36-25.37-22.36z" transform="translate(-2.11 -1.76)"/></g><g clip-path="url(#clip-path-2)"><path class="cls-7" d="M106.73 113.88h25.32v25.32h-25.32z"/></g><g clip-path="url(#clip-path-3)"><path class="cls-7" d="M113.33 125.11h12.12v33.52h-12.12z"/></g></svg>