<svg version="1.1" id="Layer_1" xmlns="http://www.w3.org/2000/svg" x="0" y="0" width="402.9" height="86.9" xml:space="preserve"><style>.st0{fill:#fff}</style><path class="st0" d="M27.4 15.2c0-5.8-1.9-8.9-8-8.9-4.7 0-8 3-9.3 6.6H10V6.5l-.2-.1L.1 9.2c1.2 1.4 2.3 4 2.3 6.9v10.7c0 3.5-.2 7.1-1.1 9.9h10c-.8-2.6-.9-5.8-.9-9.6V13.9c1.3-1.2 3-1.8 5.2-1.8 2.9 0 4 1.3 4 4v11.1c0 3.8-.1 7-.9 9.6h10c-.9-2.8-1.1-6.4-1.1-9.9V15.2h-.2zM38.5 21.5c-4.5 1.8-8.7 3.8-8.7 8.5 0 4.5 3.1 7.4 7.9 7.4 3.9 0 6.4-1.7 7.6-5.4h.1c.1 2.8 2 5.4 5.8 5.4 3.2 0 4.8-1.6 5.7-4.1.2-.6.3-1 .5-1.9-.3.3-1.3.4-1.6.4-1.9 0-2.8-.7-2.8-3.1V15.6c0-6.3-2.9-9.3-10.6-9.3-5.9 0-11.7 2.9-11.7 7 0 2.1 1.5 3.2 3.2 3.2 1.9 0 3.1-1 3.7-3.9.4-1.9 1.2-2.8 3.1-2.8C44 9.9 45 11.6 45 15v.6c0 3-2.3 4.2-6.5 5.9zM45 31c-.6 1.2-1.4 2-3.6 2-2.3 0-3.7-1.7-3.7-4.2 0-3.2 1-4.7 3.8-6 2.2-1 3-1.6 3.6-2.5L45 31zM67.4 37.4c3.6 0 6.1-1.5 7.1-3.9.4-.9.5-1.5.7-2.5-.9.5-2.1.8-4.2.8-2.8 0-4.1-1.2-4.1-4.3V11.2h6.8l.8-4.2h-7.6V.1l-.2-.1L56 10.9v.2h3v17.5c0 5.7 2.3 8.8 8.4 8.8zM76.9 27.6c0 5.8 2.4 9.7 8.9 9.7 5.1 0 7.6-2.7 8.9-6.5h.1v5.9h8.9c-.7-2.2-1.2-4.3-1.2-8.9v-21l-9.2.9c.9 2.6 1.3 5.2 1.3 8.2v13.9c-1.1 1.4-3 2.3-5.5 2.3-3 0-4.2-1.7-4.2-4.8V6.8l-9.2.9c1 2.6 1.3 5.2 1.3 8.2v11.7h-.1zM107.4 26.8c0 3.5-.2 7.1-1.1 9.9h10c-.7-2.8-1-6.4-1-10.1v-7.4c0-4.6 1.8-7.2 3.4-7.2.7 0 1.1.7 1.8 1.3.6.6 1.4 1.2 2.8 1.2 2.4 0 3.7-1.8 3.7-4.1 0-2.5-1.5-4.1-4.6-4.1-3.4 0-5.9 2.1-7.2 7.6h-.2V6.5l-.1-.1-9.7 2.8c1.2 1.4 2.3 4 2.3 6.9v10.7h-.1zM140 37.4c6.6 0 10.2-4.2 11.4-8.6l-.2-.5c-1.4 1.4-3.5 3.3-8.2 3.3-5.2 0-9.1-2.9-9.1-10.3v-.9h17.5c0-9.2-3.6-14.1-11.3-14.1-8.1 0-14.1 6.5-14.1 16.4.1 9.6 6.4 14.7 14 14.7zm-.1-27.5c3.3 0 4 2.8 4.1 7.5l-10 .9c.6-5.7 2.6-8.4 5.9-8.4zM27.2 64.7c0-5.8-1.9-8.9-8-8.9-4.7 0-7.7 2.9-9 6.5H10V51.2l.3-7.9-.1-.1L0 46c1.2 1.4 2.1 3.6 2.1 7.4v23c0 3.5-.2 7.1-1.1 9.9h10c-.8-2.6-.9-5.8-.9-9.6V63.4c1.2-1.2 3-1.8 5.2-1.8 2.9 0 4 1.3 4 4v11.1c0 3.8-.1 7-.9 9.6h10c-.9-2.8-1.1-6.4-1.1-9.9l-.1-11.7zM56.6 56.3l-9.2.9c.9 2.6 1.3 5.2 1.3 8.2v13.9c-1.1 1.4-3 2.3-5.5 2.3-3 0-4.2-1.7-4.2-4.8V56.3l-9.2.9c1 2.6 1.3 5.2 1.3 8.2v11.7c0 5.8 2.4 9.7 8.9 9.7 5.1 0 7.6-2.7 8.9-6.5h.1v5.9h8.9c-.7-2.2-1.2-4.3-1.2-8.9l-.1-21zM102.6 64.7c0-5.8-1.6-8.9-7.8-8.9-4.7 0-7.6 3-8.9 6.6h-.1c-.4-4.2-2.2-6.6-7.6-6.6-4.7 0-7.6 3-9 6.6H69V56l-.1-.1-9.7 2.8c1.2 1.4 2.3 4 2.3 6.9v10.7c0 3.5-.2 7.1-1.1 9.9h10c-.8-2.6-.9-5.8-.9-9.6V63.4c1.4-1.4 2.6-1.8 4.9-1.8 2.9 0 3.7 1.3 3.7 4v11.1c0 3.8-.1 7-.9 9.6h10c-.9-2.8-1.1-6.4-1.1-9.9v-13c1.3-1.3 2.6-1.8 4.9-1.8 2.9 0 3.7 1.3 3.7 4v11.1c0 3.8-.1 7-.9 9.6h10c-.9-2.8-1.1-6.4-1.1-9.9l-.1-11.7zM128.2 78.3V65.1c0-6.3-2.9-9.3-10.6-9.3-5.9 0-11.7 2.9-11.7 7 0 2.1 1.5 3.2 3.2 3.2 1.9 0 3.1-1 3.7-3.9.4-1.9 1.2-2.8 3.1-2.8 3.1 0 4.2 1.7 4.2 5.1v.6c0 3-2.3 4.2-6.5 5.9-4.5 1.8-8.7 3.8-8.7 8.5 0 4.5 3.1 7.4 7.9 7.4 3.9 0 6.4-1.7 7.6-5.4h.1c.1 2.8 2 5.4 5.8 5.4 3.2 0 4.8-1.6 5.7-4.1.2-.6.3-1 .5-1.9-.3.3-1.3.4-1.6.4-1.8.1-2.7-.6-2.7-2.9zm-8 2.2c-.6 1.2-1.4 2-3.6 2-2.3 0-3.7-1.7-3.7-4.2 0-3.2 1-4.7 3.8-6 2.2-1 3-1.6 3.6-2.5v10.7h-.1zM159.3 64.7c0-5.8-1.9-8.9-8-8.9-4.7 0-8 3-9.3 6.6h-.2V56l-.1-.1-9.7 2.8c1.2 1.4 2.3 4 2.3 6.9v10.7c0 3.5-.2 7.1-1.1 9.9h10c-.8-2.6-.9-5.8-.9-9.6V63.4c1.3-1.2 3-1.8 5.2-1.8 2.9 0 4 1.3 4 4v11.1c0 3.8-.1 7-.9 9.6h10c-.9-2.8-1.1-6.4-1.1-9.9V64.7h-.2zM186.9 55.8c-4.5 0-8.4 3.5-9.3 6.3h-.1V51.2l.2-7.9-.1-.1-10.1 2.8c1.2 1.4 2.1 3.6 2.1 7.4v30.7c3.2 1.6 7.3 2.8 12.5 2.8 10.9 0 15.4-7.8 15.4-16.7 0-10-4.4-14.4-10.6-14.4zm-4.8 27.4c-1.6 0-3.3-.5-4.6-1.5V63.5c.9-1.2 3.2-2.3 5.3-2.3 4.4 0 6 3 6 10.1.1 7.4-1.7 11.9-6.7 11.9zM224.8 69.8c0-9.2-3.6-14.1-11.3-14.1-8.1 0-14.1 6.5-14.1 16.4 0 9.7 6.3 14.7 13.9 14.7 6.6 0 10.2-4.2 11.4-8.6l-.2-.5c-1.4 1.4-3.5 3.3-8.2 3.3-5.2 0-9.1-2.9-9.1-10.3v-.9h17.6zm-11.5-10.4c3.3 0 4 2.8 4.1 7.5l-10 .9c.6-5.7 2.5-8.4 5.9-8.4zM253 64.7c0-5.8-1.9-8.9-8-8.9-4.7 0-7.7 2.9-9 6.5h-.2V51.2l.3-7.9-.1-.1-10.1 2.8c1.2 1.4 2.1 3.6 2.1 7.4v23c0 3.5-.2 7.1-1.1 9.9h10c-.8-2.6-.9-5.8-.9-9.6V63.4c1.2-1.2 3-1.8 5.2-1.8 2.9 0 4 1.3 4 4v11.1c0 3.8-.1 7-.9 9.6h10c-.9-2.8-1.1-6.4-1.1-9.9V64.7h-.2zM278.6 78.3V65.1c0-6.3-2.9-9.3-10.6-9.3-5.9 0-11.7 2.9-11.7 7 0 2.1 1.5 3.2 3.2 3.2 1.9 0 3.1-1 3.7-3.9.4-1.9 1.2-2.8 3.1-2.8 3.1 0 4.2 1.7 4.2 5.1v.6c0 3-2.3 4.2-6.5 5.9-4.5 1.8-8.7 3.8-8.7 8.5 0 4.5 3.1 7.4 7.9 7.4 3.9 0 6.4-1.7 7.6-5.4h.1c.1 2.8 2 5.4 5.8 5.4 3.2 0 4.8-1.6 5.7-4.1.2-.6.3-1 .5-1.9-.3.3-1.3.4-1.6.4-1.7.1-2.7-.6-2.7-2.9zm-7.9 2.2c-.6 1.2-1.4 2-3.6 2-2.3 0-3.7-1.7-3.7-4.2 0-3.2 1-4.7 3.8-6 2.2-1 3-1.6 3.6-2.5l-.1 10.7zM300.5 56.4c.9 2.2.4 5.1-.8 8.4l-3.7 9.9h-.1l-3.8-10c-1.3-3.5-1.8-6-1.6-8.3h-10.8c1.6 2.5 2.6 5.1 4.2 9l8.6 21.1h2.6l8.5-21.1c1.4-3.5 3-6.8 4.4-9h-7.5zM313.2 54.1c2.9 0 4.8-2.1 4.8-4.7s-2-4.7-4.8-4.7-4.8 2.1-4.8 4.7 2 4.7 4.8 4.7zM317.5 63.4l.2-7.4-.1-.1-10.3 2.8c1.2 1.4 2.3 4 2.3 6.9v10.7c0 3.5-.2 7.1-1.1 9.9h10.2c-.9-2.8-1.1-6.4-1.1-9.9V63.4h-.1zM335.2 55.8c-7.4 0-14.4 6-14.4 15.6 0 9.8 7.3 15.5 14.8 15.5 7.4 0 14.4-6 14.4-15.6 0-9.8-7.2-15.5-14.8-15.5zm.5 27.5c-3.8 0-6.2-2.3-6.2-12 0-9.1 2.1-11.8 5.7-11.8 3.8 0 6.2 2.3 6.2 12 0 9.1-2.1 11.8-5.7 11.8zM378.4 56.3l-9.2.9c.9 2.6 1.3 5.2 1.3 8.2v13.9c-1.1 1.4-3 2.3-5.5 2.3-3 0-4.2-1.7-4.2-4.8V56.3l-9.2.9c1 2.6 1.3 5.2 1.3 8.2v11.7c0 5.8 2.4 9.7 8.9 9.7 5.1 0 7.6-2.7 8.9-6.5h.1v5.9h8.9c-.7-2.2-1.2-4.3-1.2-8.9l-.1-21zM398.3 55.8c-3.4 0-5.9 2.1-7.2 7.6h-.1V56l-.1-.1-9.7 2.8c1.2 1.4 2.3 4 2.3 6.9v10.7c0 3.5-.2 7.1-1.1 9.9h10c-.7-2.8-1-6.4-1-10.1v-7.4c0-4.6 1.8-7.2 3.4-7.2.7 0 1.1.7 1.8 1.3.6.6 1.4 1.2 2.8 1.2 2.4 0 3.7-1.8 3.7-4.1-.2-2.5-1.7-4.1-4.8-4.1z"/></svg>